<svg xmlns="http://www.w3.org/2000/svg" viewBox="0 0 500 500"><path d="M68 167s-28 72 11.2 144.6 120 110.8 184.5 143.5 131.7 16.8 163.5-36.8-11.8-92-11.9-168.4 11.5-96.8-30-161.4-143-79-219.9-31S68 167.1 68 167.1z" fill="#fff" opacity=".7"/><path d="M132 427.6c23.6 24.9 81.5 15.8 106.6 0C320.1 376.3 463 291 469.4 167.4c2.7-52.5-43.6-80.1-63-88.2C360 59.7 309 53.9 258.7 51.7c-52.5-2.4-109-.6-156.3 25.1A129 129 0 0056 116a123.6 123.6 0 00-20.3 58.6c-3 33.5 6 67.1 19.7 97.9s31.8 59.2 48.5 88.4c10.9 19 8.4 45.7 28.2 66.7z" fill="#92a6e3"/><path d="M132 427.6c23.6 24.9 81.5 15.8 106.6 0C320.1 376.3 463 291 469.4 167.4c2.7-52.5-43.6-80.1-63-88.2C360 59.7 309 53.9 258.7 51.7c-52.5-2.4-109-.6-156.3 25.1A129 129 0 0056 116a123.6 123.6 0 00-20.3 58.6c-3 33.5 6 67.1 19.7 97.9s31.8 59.2 48.5 88.4c10.9 19 8.4 45.7 28.2 66.7z" fill="#fff" opacity=".7"/><rect x="83.1" y="132.2" width="57" height="36.4" rx="3.5" transform="rotate(16.8 111.5 150.5)" fill="none" stroke="#263238" stroke-miterlimit="10"/><path fill="none" stroke="#263238" stroke-miterlimit="10" d="M87.2 132.8l54.5 16.6M85.5 138.3l54.5 16.5M123.5 165a3.6 3.6 0 00.3 2.8 3.6 3.6 0 01-2.7.3 3.5 3.5 0 114.2-5.2 3.6 3.6 0 00-1.8 2.2z"/><path d="M130.2 167.1a3.5 3.5 0 11-2.3-4.4 3.5 3.5 0 012.3 4.4z" fill="none" stroke="#263238" stroke-miterlimit="10"/><rect x="418.6" y="202.1" width="48.5" height="31" rx="3.5" transform="rotate(16.9 442.8 217.6)" fill="none" stroke="#263238" stroke-miterlimit="10"/><path fill="none" stroke="#263238" stroke-miterlimit="10" d="M422 202.6l46.4 14.1M420.6 207.3l46.4 14M452.9 230a3 3 0 00.3 2.4 3 3 0 11-.5-5.6 3 3 0 011.7 1.4 3 3 0 00-1.5 1.8z"/><path d="M458.7 231.8a3 3 0 11-2-3.8 3 3 0 012 3.8zM345.8 125.8l58-26.6 13.7 30.1-57.9 26.6z" fill="none" stroke="#263238" stroke-miterlimit="10"/><path d="M412.5 125l-8.8-19.1a3.4 3.4 0 01-4.5-1.7l-46.8 21.4a3.4 3.4 0 01-1.6 4.5l8.7 19.2a3.4 3.4 0 014.5 1.6l46.8-21.4a3.4 3.4 0 011.7-4.5z" fill="none" stroke="#263238" stroke-miterlimit="10"/><circle cx="381.6" cy="127.5" r="8.7" transform="rotate(-37.5 381.7 127.5)" fill="none" stroke="#263238" stroke-miterlimit="10"/><path d="M384 131.7l.7 1.5-.7.2-.6-1.4a5.1 5.1 0 01-3.5.3v-1a4.6 4.6 0 003.1 0l-1.5-3.3c-1.5.3-3 .5-3.8-1.1-.5-1.2-.2-2.6 1.7-3.6l-.7-1.5.6-.2.7 1.4a5.3 5.3 0 012.9-.4v.9a5 5 0 00-2.6.3l1.5 3.3c1.6-.3 3.2-.6 4 1 .5 1.2.1 2.6-1.8 3.6zm-2.9-4.6l-1.4-3.1c-1.2.7-1.5 1.6-1.1 2.4.4 1 1.4 1 2.5.7zm3.8 1.4c-.4-1-1.5-.9-2.7-.6l1.4 3c1.4-.7 1.7-1.6 1.3-2.4z" fill="#263238"/><path fill="none" stroke="#263238" stroke-miterlimit="10" d="M39.8 240.4l44.5-4 2 23-44.5 4z" stroke-width="1.00404"/><path d="M82.8 254.9l-1.3-14.7a2.4 2.4 0 01-2.6-2.1l-35.8 3a2.4 2.4 0 01-2.2 2.6l1.3 14.7a2.4 2.4 0 012.5 2.1l35.9-3a2.4 2.4 0 012.2-2.6z" fill="none" stroke="#263238" stroke-miterlimit="10"/><path d="M67.9 248.8a6 6 0 11-6.6-5.6 6 6 0 016.6 5.6z" fill="none" stroke="#263238" stroke-miterlimit="10"/><path d="M62.4 252.6v1.1H62v-1a3.6 3.6 0 01-2.4-.7l.2-.6a3.3 3.3 0 002 .6l-.1-2.5c-1.1-.1-2.2-.4-2.3-1.6 0-1 .5-1.8 2-2l-.1-1h.4l.1 1a3.8 3.8 0 012 .4l-.2.6a3.6 3.6 0 00-1.7-.4l.2 2.5c1 .1 2.3.4 2.4 1.6 0 1-.6 1.8-2.1 2zm-.8-3.7l-.2-2.4c-1 .2-1.4.8-1.3 1.4s.7.9 1.5 1zm2.1 1.8c0-.7-.7-1-1.6-1l.2 2.3c1-.1 1.5-.7 1.5-1.3z" fill="#263238"/><circle cx="444.3" cy="104" r="8.7" fill="none" stroke="#263238" stroke-miterlimit="10"/><path d="M444.7 108.8v1.6h-.7v-1.6a5.2 5.2 0 01-3.3-1.2l.4-.8a4.7 4.7 0 002.9 1.2v-3.6c-1.5-.3-3-.8-3-2.6 0-1.3 1-2.4 3-2.6v-1.6h.7v1.6a5.3 5.3 0 012.7.8l-.3.8a5 5 0 00-2.4-.8v3.6c1.5.4 3.1.8 3.1 2.7 0 1.3-1 2.4-3 2.5zm-.7-5.3V100c-1.4 0-2 .8-2 1.7 0 1 1 1.4 2 1.7zm2.9 2.8c0-1-1-1.4-2.2-1.7v3.4c1.5-.1 2.2-.8 2.2-1.7z" fill="#263238"/><circle cx="385" cy="211.9" r="8.7" transform="rotate(-13.3 385 212)" fill="none" stroke="#263238" stroke-miterlimit="10"/><path d="M382.8 216.2l-.8 1.4-.6-.4.9-1.3a5 5 0 01-2.2-2.8l.8-.4a4.7 4.7 0 001.8 2.5l1.9-3.1c-1.1-1-2.2-2.3-1.2-3.8.7-1.1 2-1.6 4-.6l.7-1.4.6.4-.8 1.3a5.4 5.4 0 012 2.2l-.8.5a5.1 5.1 0 00-1.6-2l-2 3.1c1.2 1.1 2.3 2.3 1.4 3.9-.7 1.1-2.1 1.6-4 .5zm2.3-5l1.8-2.8c-1.3-.7-2.2-.4-2.7.3-.5 1 0 1.8.9 2.6zm1 4c.5-1-.2-1.8-1-2.6l-1.8 2.9c1.3.7 2.3.5 2.7-.3z" fill="#263238"/><path d="M260.2 44a8.7 8.7 0 11-11.5-4.3 8.7 8.7 0 0111.5 4.3z" fill="none" stroke="#263238" stroke-miterlimit="10"/><path d="M254.6 51.8l.7 1.5-.6.2-.7-1.4a5.1 5.1 0 01-3.5.3v-1a4.6 4.6 0 003.1 0l-1.5-3.3c-1.5.3-3 .5-3.8-1.1-.6-1.2-.2-2.6 1.6-3.7l-.6-1.4.6-.3.7 1.4a5.3 5.3 0 012.8-.3v.8a5 5 0 00-2.5.3l1.5 3.3c1.5-.3 3.2-.6 4 1 .6 1.3.1 2.7-1.8 3.7zm-2.8-4.6l-1.4-3c-1.3.6-1.5 1.5-1.2 2.3.5 1 1.4 1 2.6.7zm3.7 1.4c-.4-1-1.5-.9-2.6-.6l1.4 3c1.3-.7 1.6-1.6 1.2-2.4z" fill="#263238"/><path d="M230.9 396.3a13 13 0 11-17.3-6.4 13 13 0 0117.3 6.4z" fill="none" stroke="#263238" stroke-miterlimit="10"/><path d="M222.5 408.1l1 2.1-.9.5-1-2.1a7.7 7.7 0 01-5.2.3v-1.3a7 7 0 004.7-.2l-2.3-5c-2.2.5-4.6.8-5.7-1.6-.8-1.8-.3-4 2.5-5.5l-1-2 .9-.5 1 2.1a8 8 0 014.3-.6v1.3a7.5 7.5 0 00-3.8.5l2.2 4.9c2.4-.5 4.9-.9 6 1.6.9 1.8.2 4-2.7 5.5zm-4.2-7l-2.2-4.6c-1.8 1-2.2 2.5-1.7 3.6.7 1.4 2.1 1.4 3.8 1zm5.6 2.2c-.7-1.5-2.3-1.3-4-1l2.1 4.6c2-1 2.4-2.4 2-3.6z" fill="#263238"/><path d="M43.7 193.2a13 13 0 111.1-18.4 13 13 0 01-1.1 18.4z" fill="none" stroke="#263238" stroke-miterlimit="10"/><path d="M30 188.6l-1.8 1.6-.6-.8 1.7-1.5a7.8 7.8 0 01-1.8-5l1.2-.2a7 7 0 001.6 4.3l4-3.5c-1.1-2-2.1-4.3 0-6 1.4-1.3 3.6-1.4 5.9.8l1.8-1.6.7.8-1.8 1.5a8 8 0 011.8 4l-1.3.4A7.7 7.7 0 0040 180l-4 3.6c1 2 2.2 4.3.1 6.1-1.5 1.3-3.8 1.4-6-1zm5.4-6l3.8-3.4c-1.5-1.5-3-1.5-3.9-.6-1.2 1-.7 2.4 0 4zm-.4 6c1.2-1.1.6-2.6-.2-4.2l-3.8 3.3c1.5 1.7 3 1.7 4 .9z" fill="#263238"/><circle cx="96.6" cy="303.2" r="6.3" transform="rotate(-87.7 97.5 303.5)" fill="none" stroke="#263238" stroke-miterlimit="10"/><path d="M99 305.7l.7.9-.4.3-.7-.9a3.7 3.7 0 01-2.4.8l-.1-.6a3.4 3.4 0 002.1-.7l-1.6-2c-1 .5-2.1 1-3 0-.5-.8-.5-1.8.5-2.9l-.7-.9.4-.3.7.9a3.9 3.9 0 012-.8l.1.6a3.8 3.8 0 00-1.7.7l1.7 2c1-.5 2.1-1 3 0 .6.7.6 1.8-.6 2.9zm-2.9-2.7l-1.5-1.9c-.8.7-.8 1.4-.4 1.9s1.2.4 2 0zm3 .3c-.5-.6-1.3-.4-2 0l1.5 2c.8-.9.9-1.6.5-2z" fill="#263238"/><path d="M297.6 429.2a6.3 6.3 0 11-8.9-.8 6.3 6.3 0 018.9.8z" fill="none" stroke="#263238" stroke-miterlimit="10"/><path d="M295.2 435.7l.7.9-.4.3-.7-.9a3.7 3.7 0 01-2.4.9l-.1-.7a3.3 3.3 0 002.1-.6l-1.6-2c-1 .4-2.1.9-3-.1-.5-.7-.5-1.8.5-2.9l-.7-.8.4-.3.7.8a3.8 3.8 0 012-.8l.1.6a3.8 3.8 0 00-1.7.7l1.7 2c1-.5 2.1-1 3 0 .6.8.5 1.8-.6 3zm-2.9-2.7l-1.6-1.9c-.7.7-.7 1.4-.3 1.9s1.2.4 2 0zm3 .3c-.6-.6-1.3-.4-2 0l1.5 1.9c.8-.7.8-1.4.4-1.9z" fill="#263238"/><circle cx="118.6" cy="69.1" r="6.3" transform="rotate(-84.8 118.6 69.1)" fill="none" stroke="#263238" stroke-miterlimit="10"/><path d="M121 71.6l.8.9-.4.3-.7-.9a3.7 3.7 0 01-2.4.9l-.1-.7a3.4 3.4 0 002-.6l-1.6-2c-1 .4-2 .9-2.9-.1-.6-.7-.6-1.8.5-2.9l-.7-.8.4-.3.7.8a3.8 3.8 0 012-.8v.6a3.8 3.8 0 00-1.6.7l1.7 2c1-.5 2-1 3 0 .5.8.5 1.8-.6 3zm-2.8-2.7l-1.6-1.9c-.7.7-.7 1.4-.3 1.9s1.1.4 1.9 0zm2.9.3c-.5-.6-1.2-.3-2 0l1.6 1.9c.8-.7.8-1.4.4-1.9z" fill="#263238"/><g><path d="M260.8 327.8s-7.7 39.1-55 48c0 0-12.3 9.9-16.5 15.7s-26 15.7-48.3 46.7-55.4-67.3-55.4-67.3l73.3-95.3z" fill-opacity=".7" opacity=".2"/><path d="M302.8 144s25.5-12.4 31.1-10.2 11 15-10.4 27.4-15 35.3-15 35.3h15.2s9.2 3.8 12.8 8.6 6.1 21.2 8.2 26.7 1 11.2-4.6 13c0 0-3.6 15.5-2.6 22.4s.5 11.4-6.1 12.2a11.6 11.6 0 01-12.7-12.2l-5.1 18.5 3.5 7.1a46.2 46.2 0 0113.8 8.4c7.1 6 14.3 7.8 12.2 14.6s-6 14.1-27.5 5.6-39.3-42-39.3-42l-12.9-116.7z" fill="#fff"/><path d="M329.7 211.1c-11.6 15.8 1.2 34 1.2 34s-8 4.4-8.2 15.8a80 80 0 002.5 17.5 11.5 11.5 0 01-6.5-11.2l-5.2 18.5 3.6 7.1a43.8 43.8 0 0110.5 5.8 60.6 60.6 0 00-3.8 25.6 68.2 68.2 0 01-8.2-2.8c-21.4-8.5-39.3-42-39.3-42l-12.9-116.7 39.4-18.6s14-6.8 23.5-9.5a77 77 0 002.3 23.3 53.8 53.8 0 01-5.1 3.3c-21.4 12.3-15 35.3-15 35.3h15.3s8.7 3.6 12.4 8.2a25 25 0 00-6.5 6.4z" fill="#92a6e3" opacity=".4"/><path d="M263 309s-27.7 54.4-77.7 66.7c0 0-2 10.8-10.4 15.4-4.5 2.5-22.8 29.8-38.8 54.7l-88.7-54.4c5.5-5.3 11.7-11.6 18-18 18.5-19 38.3-40 44.3-50.5 5.4-9.3 12.2-25.5 18.2-40.6 7.6-19.4 13.8-37.3 13.8-37.3l29.6-32.8 46.4-51.7 2 6.6z" fill="#fff"/><path d="M217.8 160.5L263 309s-27.7 54.4-77.7 66.7c0 0-2 10.8-10.4 15.4-4 2.2-19.2 24.5-33.8 47a344 344 0 0121.1-48.2c-10-12-7.1-24.5-3-21s14 13.7 14.7 14.3c-4.4-5.2-5.5-13.4-5.5-13.4s12.5 8.3 13.5-5-7.5-45.8-7.5-45.8l-22.3-85.5z" fill="#92a6e3" opacity=".4"/><path d="M263.4 162.7l39.4-18.6s25.5-12.5 31.1-10.3 11 15-10.4 27.4-15 35.3-15 35.3h15.2s9.2 3.8 12.8 8.6 6.1 21.2 8.2 26.7 1 11.2-4.6 13c0 0-3.6 15.5-2.6 22.4s.5 11.4-6.1 12.2a11.6 11.6 0 01-12.7-12.2l-5.1 18.5 3.5 7.1a46.2 46.2 0 0113.8 8.4c7.1 6 14.3 7.8 12.2 14.6s-6 14.1-27.5 5.6-39.3-42-39.3-42" fill="none" stroke="#263238" stroke-linecap="round" stroke-linejoin="round"/><path d="M340 244.8c-7.6 2-16.5.5-19.8-13s3.3-28 7.6-29.4M318.6 267.2s-.5-17.4 6-21.7" fill="none" stroke="#263238" stroke-linecap="round" stroke-linejoin="round"/><path d="M132.6 353.7s-18.7-2.3-22.8-10.7c-3.5-6.9-22.2 19-44.3 30.3 18.5-18.8 38.2-40 44.3-50.4 5.4-9.3 12.2-25.5 18.1-40.6-.3 12.5-7 31.8-5 41.8a8 8 0 00-5.8 9.8c1.4 8 15.5 19.8 15.5 19.8z" fill="#92a6e3" opacity=".4"/><path d="M263 309s-27.7 54.4-77.8 66.7c0 0-1.8 10.8-10.3 15.4-4.5 2.5-22.8 29.8-38.8 54.7M47.4 391.4c21.4-21 54.2-54.5 62.4-68.5 12.3-21.2 32-77.9 32-77.9l76-84.5M174.4 225s11.7 10.5 15 20" fill="none" stroke="#263238" stroke-linecap="round" stroke-linejoin="round"/><rect x="179.9" y="72.7" width="139.1" height="281" rx="6.7" fill="#263238"/><path d="M277 80.4l-2.7 4.8a3.3 3.3 0 01-2.9 1.8h-44a3.4 3.4 0 01-2.9-1.7l-2.6-5a3.3 3.3 0 00-3-1.6h-30.7a3.3 3.3 0 00-3.3 3.3v263a3.3 3.3 0 003.3 3.3h122.4a3.3 3.3 0 003.4-3.3V82a3.3 3.3 0 00-3.3-3.3h-30.8a3.3 3.3 0 00-2.9 1.7z" fill="#92a6e3" stroke="#263238" stroke-linecap="round" stroke-linejoin="round"/><circle cx="239.9" cy="80.9" r="1.8" fill="none" stroke="#fff" stroke-miterlimit="10"/><path d="M260.8 81a1.1 1.1 0 11-1.2-1.2 1.1 1.1 0 011.1 1.1z" fill="none" stroke="#fff" stroke-miterlimit="10"/><path d="M255.8 80.2h-11a.7.7 0 00-.6.7.7.7 0 00.7.7h10.9a.7.7 0 00.7-.7.7.7 0 00-.7-.7z" fill="#fff"/><path fill="none" stroke="#263238" stroke-linecap="round" stroke-linejoin="round" d="M195.9 85.3h11.7v5h-11.7zM207.6 86.2h1.8v3.3h-1.8zM288.7 88.5h2.1v1.8h-2.1zM292.7 86.7h2.1v3.6h-2.1zM296.8 84.9h2.1v5.4h-2.1zM300.9 83h2.1v7.3h-2.1z"/><path fill="#fff" opacity=".5" d="M185.7 136.8h127.4v121.5H185.7z"/><path d="M220.9 117.3v2.2c0 2.6-1.3 4-3.8 4h-1.2v6h-2.6v-16.2h3.8c2.6 0 3.8 1.4 3.8 4zm-5-1.7v5.6h1.2c.8 0 1.3-.4 1.3-1.6v-2.4c0-1.2-.5-1.6-1.3-1.6zM230 129.6h-2.5l-.5-3h-3l-.5 3H221l2.6-16.3h3.8zm-5.8-5.2h2.5l-1.2-8.2zM232.5 124.2l-3.2-10.9h2.7l2 7.4 2-7.4h2.4l-3.3 11v5.3h-2.5zM244.7 124.9l1.8-11.6h3.6v16.3h-2.5v-11.7l-1.7 11.7h-2.4l-1.9-11.5v11.5h-2.3v-16.3h3.6zM254.5 120.2h3.5v2.3h-3.5v4.8h4.4v2.3h-7v-16.3h7v2.3h-4.4zM262.8 117.8v11.8h-2.4v-16.3h3.3l2.5 9.8v-9.8h2.3v16.3H266zM269.7 113.3h7.9v2.3h-2.7v14h-2.6v-14h-2.6zM282.1 113.1c2.5 0 3.8 1.5 3.8 4.1v.5h-2.4v-.6c0-1.2-.5-1.6-1.3-1.6s-1.3.4-1.3 1.6.5 2 2.2 3.5c2.1 1.9 2.8 3.2 2.8 5 0 2.7-1.3 4.2-3.8 4.2s-3.8-1.5-3.8-4.1v-1h2.4v1.2c0 1.1.5 1.5 1.3 1.5s1.4-.4 1.4-1.5-.5-2.1-2.2-3.6c-2.2-1.9-2.8-3.2-2.8-5 0-2.7 1.2-4.2 3.7-4.2z" fill="#263238"/><path fill="#fff" stroke="#263238" stroke-linecap="round" stroke-linejoin="round" d="M195.9 151.5h107v16h-107zM195.9 181.5h107v16h-107zM195.9 208.8h107v16h-107zM195.9 230.6h50.7v18.7h-50.7zM252.3 230.6H303v18.7h-50.7z"/><path d="M202.6 148.7v.4h-3.4v-4.7h3.3v.4h-2.8v1.7h2.5v.4h-2.5v1.8zM209.5 147v2.1h-.5v-2c0-.7-.4-1.1-1-1.1a1.1 1.1 0 00-1.2 1.3v1.8h-.5v-2c0-.7-.3-1.1-1-1.1a1.1 1.1 0 00-1.2 1.3v1.9h-.4v-3.6h.4v.7a1.4 1.4 0 011.3-.7 1.3 1.3 0 011.3.7 1.6 1.6 0 011.4-.7 1.3 1.3 0 011.4 1.5zM213.5 147v2.1h-.5v-.5a1.4 1.4 0 01-1.2.6c-.8 0-1.3-.5-1.3-1s.4-1 1.4-1h1.1v-.3c0-.6-.3-.9-1-.9a1.8 1.8 0 00-1.2.4l-.2-.3a2.3 2.3 0 011.4-.5 1.3 1.3 0 011.5 1.3zm-.5 1v-.5h-1c-.8 0-1 .2-1 .6s.3.7.9.7a1.1 1.1 0 001.1-.7zM214.7 144.5a.3.3 0 01.3-.4.3.3 0 110 .7.3.3 0 01-.3-.3zm.1 1h.5v3.6h-.5zM216.6 144.1h.5v5h-.5zM205.9 161v.4h-3.4v-4.7h3.3v.4H203v1.7h2.5v.4H203v1.8zM212.8 159.3v2.1h-.4v-2c0-.7-.4-1.1-1-1.1a1.1 1.1 0 00-1.2 1.2v2h-.5v-2c0-.8-.4-1.2-1-1.2a1.1 1.1 0 00-1.2 1.3v1.8h-.5V158h.5v.6a1.4 1.4 0 011.3-.6 1.3 1.3 0 011.2.7 1.6 1.6 0 011.4-.7 1.3 1.3 0 011.4 1.4zM216.8 159.2v2.2h-.5v-.5a1.3 1.3 0 01-1.2.5c-.8 0-1.3-.4-1.3-1s.4-1 1.4-1h1.1v-.2c0-.6-.3-1-1-1a1.8 1.8 0 00-1.2.5l-.2-.4a2.2 2.2 0 011.5-.4 1.3 1.3 0 011.4 1.3zm-.5 1.1v-.5h-1c-.8 0-1 .2-1 .6s.3.7 1 .7a1.1 1.1 0 001-.8zM218 156.7a.3.3 0 01.3-.3.3.3 0 01.4.3.3.3 0 11-.7 0zm.1 1.2h.5v3.5h-.5zM220 156.4h.4v5h-.5zM225 159.3v2.1h-.5v-2a1 1 0 00-1-1.1 1.2 1.2 0 00-1.3 1.2v2h-.5v-3.6h.5v.6a1.5 1.5 0 011.3-.7 1.4 1.4 0 011.5 1.5zM229 159.2v2.2h-.5v-.5a1.3 1.3 0 01-1.2.5c-.8 0-1.3-.4-1.3-1s.4-1 1.4-1h1.1v-.2c0-.6-.3-1-1-1a1.8 1.8 0 00-1.2.5l-.2-.4a2.2 2.2 0 011.5-.4 1.3 1.3 0 011.4 1.3zm-.5 1.1v-.5h-1c-.8 0-1 .2-1 .6s.3.7.9.7a1.1 1.1 0 001.1-.8zM236.2 159.3v2.1h-.5v-2c0-.7-.4-1.1-1-1.1a1.1 1.1 0 00-1.2 1.2v2h-.5v-2c0-.8-.4-1.2-1-1.2a1.1 1.1 0 00-1.2 1.3v1.8h-.5V158h.5v.6a1.4 1.4 0 011.3-.6 1.3 1.3 0 011.3.7 1.6 1.6 0 011.4-.7 1.3 1.3 0 011.4 1.4zM240.6 159.8h-3a1.3 1.3 0 001.4 1.2 1.4 1.4 0 001-.5l.4.3a1.9 1.9 0 01-3.3-1.2 1.7 1.7 0 011.8-1.8 1.7 1.7 0 011.7 1.8v.2zm-3-.4h2.5a1.3 1.3 0 00-2.5 0zM247.6 159.6c0 1.2-.5 1.8-1.2 1.8a.7.7 0 01-.7-.7 1.5 1.5 0 01-1.4.7 1.7 1.7 0 010-3.4 1.5 1.5 0 011.4.7v-.7h.4v2.6c0 .3.2.5.4.5.4 0 .7-.5.7-1.4a2.6 2.6 0 00-2.8-2.7 2.7 2.7 0 100 5.4 3 3 0 001.3-.3l.1.4a3.3 3.3 0 01-1.4.3 3 3 0 110-6.1 3 3 0 013.2 3zm-2 0a1.3 1.3 0 10-2.5 0 1.3 1.3 0 102.6 0zM251.7 159.8h-3a1.3 1.3 0 001.4 1.2 1.4 1.4 0 001-.4l.3.3a1.9 1.9 0 01-3.2-1.3 1.7 1.7 0 011.7-1.8 1.7 1.7 0 011.7 1.8v.2zm-3-.4h2.5a1.3 1.3 0 00-2.5 0zM258.5 159.3v2.1h-.5v-2c0-.7-.4-1.1-1-1.1a1.1 1.1 0 00-1.2 1.2v2h-.5v-2c0-.8-.3-1.2-1-1.2a1.1 1.1 0 00-1.2 1.3v1.8h-.4V158h.4v.6a1.4 1.4 0 011.3-.6 1.3 1.3 0 011.3.7 1.5 1.5 0 011.4-.7 1.3 1.3 0 011.4 1.4zM262.5 159.2v2.2h-.5v-.5a1.3 1.3 0 01-1.2.5c-.8 0-1.3-.4-1.3-1s.3-1 1.3-1h1.2v-.2c0-.6-.3-1-1-1a1.8 1.8 0 00-1.2.5l-.2-.4a2.2 2.2 0 011.4-.4 1.3 1.3 0 011.5 1.3zm-.5 1.1v-.5H261c-.7 0-1 .2-1 .6s.4.7 1 .7a1.1 1.1 0 001.1-.8zM263.7 156.7a.3.3 0 11.3.4.3.3 0 01-.3-.4zm0 1.2h.6v3.5h-.5zM265.6 156.4h.5v5h-.5zM267.1 161a.3.3 0 01.4-.3.4.4 0 01.3.4.4.4 0 01-.3.3.4.4 0 01-.4-.3zM268.4 159.6a1.8 1.8 0 011.8-1.8 1.6 1.6 0 011.4.7l-.3.3a1.2 1.2 0 00-1-.6 1.4 1.4 0 000 2.8 1.2 1.2 0 001-.5l.3.2a1.6 1.6 0 01-1.4.7 1.8 1.8 0 01-1.8-1.8zM272.1 159.6a1.8 1.8 0 111.9 1.8 1.8 1.8 0 01-1.9-1.8zm3.2 0a1.3 1.3 0 10-1.3 1.4 1.3 1.3 0 001.3-1.4zM282.6 159.3v2.1h-.5v-2c0-.7-.4-1.1-1-1.1a1.1 1.1 0 00-1.2 1.2v2h-.4v-2c0-.8-.4-1.2-1-1.2a1.1 1.1 0 00-1.2 1.3v1.8h-.5V158h.4v.6a1.4 1.4 0 011.3-.6 1.3 1.3 0 011.3.7 1.5 1.5 0 011.4-.7 1.3 1.3 0 011.4 1.4zM203.4 189.6l.8.4-.1.3-.9-.5v1h-.3v-1l-.8.5-.2-.3.9-.4-.9-.5.2-.3.8.5v-1h.3v1l.9-.5.1.3zM206.1 189.6l.9.4-.2.3-.8-.5v1h-.3v-1l-.9.5-.2-.3.9-.4-.8-.5.1-.3.9.5v-1h.3v1l.8-.5.2.3zM208.9 189.6l.8.4-.1.3-.9-.5v1h-.3v-1l-.8.5-.2-.3.8-.4-.8-.5.2-.3.8.5v-1h.3v1l.9-.5.1.3zM211.6 189.6l.9.4-.2.3-.8-.5v1h-.3v-1l-.9.5-.2-.3.9-.4-.9-.5.2-.3.8.5v-1h.4v1l.8-.5.2.3zM214.4 189.6l.8.4-.1.3-.9-.5v1h-.3v-1l-.8.5-.2-.3.8-.4-.8-.5.2-.3.8.5v-1h.3v1l.9-.5.1.3zM217.1 189.6l.9.4-.2.3-.8-.5v1h-.4v-1l-.8.5-.2-.3.9-.4-.9-.5.2-.3.8.5v-1h.4v1l.8-.5.2.3zM219.8 189.6l.9.4-.2.3-.8-.5v1h-.3v-1l-.9.5-.1-.3.8-.4-.8-.5.1-.3.9.5v-1h.3v1l.8-.5.2.3zM222.6 189.6l.8.4-.1.3-.9-.5v1h-.3v-1l-.8.5-.2-.3.9-.4-.9-.5.2-.3.8.5v-1h.3v1l.9-.5.1.3zM225.3 189.6l.9.4-.2.3-.8-.5v1h-.3v-1l-.9.5-.1-.3.8-.4-.8-.5.1-.3.9.5v-1h.3v1l.8-.5.2.3zM228 189.6l1 .4-.2.3-.9-.5v1h-.3v-1l-.8.5-.2-.3.8-.4-.8-.5.2-.3.8.5v-1h.3v1l.9-.5.1.3zM230.8 189.6l.9.4-.2.3-.8-.5v1h-.3v-1l-.9.5-.2-.3.9-.4-.9-.5.2-.3.9.5v-1h.3v1l.8-.5.2.3zM203 176c0 1-.8 1.6-2 1.6h-1.3v1.5h-.5v-4.7h1.8c1.2 0 2 .6 2 1.6zm-.6 0c0-.8-.5-1.2-1.4-1.2h-1.3v2.4h1.3c1 0 1.4-.4 1.4-1.2zM206.6 177v2.1h-.5v-.5a1.4 1.4 0 01-1.2.6c-.8 0-1.3-.4-1.3-1s.3-1 1.4-1h1v-.2c0-.7-.3-1-1-1a1.8 1.8 0 00-1 .4l-.3-.3a2.2 2.2 0 011.4-.5 1.3 1.3 0 011.5 1.3zm-.5 1v-.5H205c-.7 0-1 .2-1 .6s.4.7 1 .7a1.1 1.1 0 001-.7zM207.4 178.7l.2-.3a2.2 2.2 0 001.3.3c.6 0 1-.2 1-.5 0-1-2.4-.2-2.4-1.6 0-.6.5-1 1.4-1a2.5 2.5 0 011.3.3l-.2.4a1.9 1.9 0 00-1-.3c-.7 0-1 .2-1 .6 0 1 2.3.2 2.3 1.6 0 .6-.6 1-1.5 1a2.4 2.4 0 01-1.4-.5zM210.7 178.7l.2-.3a2.1 2.1 0 001.3.3c.6 0 1-.2 1-.5 0-1-2.3-.2-2.3-1.6 0-.6.5-1 1.4-1a2.4 2.4 0 011.2.3l-.2.4a1.9 1.9 0 00-1-.3c-.6 0-1 .2-1 .6 0 1 2.4.2 2.4 1.6 0 .6-.6 1-1.5 1a2.4 2.4 0 01-1.5-.5zM219.6 175.6l-1.3 3.5h-.5l-1-2.9-1.2 3h-.5l-1.3-3.6h.5l1 3 1.2-3h.4l1.2 3 1-3zM219.9 177.3a1.8 1.8 0 111.8 1.9 1.8 1.8 0 01-1.8-1.8zm3.1 0a1.3 1.3 0 10-2.6 0 1.3 1.3 0 102.6 0zM226.3 175.6v.4h-.1a1.1 1.1 0 00-1.2 1.3v1.8h-.5v-3.5h.5v.7a1.3 1.3 0 011.3-.8zM230.3 174.1v5h-.4v-.7a1.5 1.5 0 01-1.4.8 1.8 1.8 0 010-3.7 1.5 1.5 0 011.4.7v-2zm-.4 3.3a1.3 1.3 0 10-1.3 1.3 1.3 1.3 0 001.3-1.3zM237.5 215v4.7h-.5v-4.3h-1.1v-.4zM241.8 219.3v.4h-3.3v-.3l2-2c.5-.5.6-.8.6-1.1 0-.6-.4-1-1-1a1.6 1.6 0 00-1.4.6l-.3-.3a2.1 2.1 0 011.7-.7c1 0 1.5.5 1.5 1.3a2 2 0 01-.7 1.5l-1.7 1.6zM245.6 218.4c0 .8-.6 1.4-1.8 1.4a2.5 2.5 0 01-1.7-.6l.3-.4a2 2 0 001.4.5c.8 0 1.3-.3 1.3-1s-.4-.9-1.3-.9h-.4v-.3l1.3-1.7h-2.4v-.4h3v.3L244 217c1 0 1.6.6 1.6 1.4zM250.3 218.5h-1v1.2h-.5v-1.2h-2.6v-.4l2.5-3.1h.5l-2.4 3h2v-1.1h.5v1.1h1zM255.7 218.3c0 .8-.6 1.5-1.7 1.5a2.5 2.5 0 01-1.7-.7l.2-.3a2 2 0 001.5.5c.8 0 1.2-.4 1.2-1s-.4-1-1.6-1h-1l.3-2.4h2.5v.5h-2.1l-.2 1.5h.6c1.5 0 2 .6 2 1.4zM259.9 218.3a1.5 1.5 0 01-1.7 1.5c-1.2 0-1.9-1-1.9-2.4s.9-2.5 2.2-2.5a2.2 2.2 0 011 .3l-.1.4a1.7 1.7 0 00-1-.2c-1 0-1.6.6-1.6 2v.3a1.5 1.5 0 011.4-.8 1.4 1.4 0 011.7 1.4zm-.5 0c0-.6-.5-1-1.2-1a1 1 0 00-1.2 1c0 .5.4 1 1.2 1a1 1 0 001.2-1zM263.7 215v.3l-2 4.4h-.5l2-4.3h-2.5v1h-.5V215zM267.9 218.4c0 .8-.8 1.4-1.9 1.4s-1.8-.6-1.8-1.4a1.2 1.2 0 01.9-1.2 1 1 0 01-.7-1c0-.7.6-1.2 1.6-1.2s1.7.5 1.7 1.2a1 1 0 01-.8 1 1.2 1.2 0 011 1.2zm-.5 0c0-.6-.5-1-1.4-1s-1.3.4-1.3 1 .5 1 1.3 1 1.4-.4 1.4-1zm-1.4-1.3c.7 0 1.2-.4 1.2-.9s-.5-.8-1.2-.8-1.2.3-1.2.8.5.9 1.2.9zM273.7 217.3c0 1.6-.9 2.5-2.2 2.5a2.2 2.2 0 01-1-.3l.1-.4a1.7 1.7 0 001 .2c1 0 1.6-.6 1.6-2a2.6 2.6 0 000-.3 1.5 1.5 0 01-1.4.8 1.4 1.4 0 01-1.6-1.4 1.5 1.5 0 011.6-1.5c1.2 0 2 1 2 2.4zm-.7-1c0-.5-.4-1-1.2-1a1 1 0 00-1.2 1c0 .7.5 1 1.2 1a1.1 1.1 0 001.2-1zM275.7 215v4.7h-.5v-4.3h-1.1v-.4zM276.8 217.3c0-1.5.8-2.4 2-2.4s1.8 1 1.8 2.4-.8 2.5-1.9 2.5-1.9-1-1.9-2.5zm3.3 0c0-1.2-.6-2-1.4-2s-1.4.7-1.4 2 .6 2 1.4 2 1.4-.7 1.4-2zM282.6 215v4.7h-.5v-4.3H281v-.4zM286.8 215v4.7h-.5v-4.3h-1v-.4zM289.3 215v4.7h-.5v-4.3h-1.2v-.4zM293.6 219.3v.4h-3.3v-.3l2-2c.5-.5.6-.8.6-1.1 0-.6-.4-1-1-1a1.6 1.6 0 00-1.4.6l-.3-.3a2.2 2.2 0 011.7-.7c1 0 1.5.5 1.5 1.3a2 2 0 01-.8 1.5l-1.6 1.6zM295.5 215v4.7h-.5v-4.3h-1.1v-.4zM215.8 213.9v-.7a1.3 1.3 0 00-1.3-1.3h-12.7a1.3 1.3 0 00-1.3 1.3v.7zM200.5 214.9v5.3a1.3 1.3 0 001.3 1.3h12.7a1.3 1.3 0 001.3-1.3v-5.3zM200.7 242.8c0-1.5.8-2.4 1.9-2.4s1.9.9 1.9 2.4-.8 2.4-2 2.4-1.8-.9-1.8-2.4zm3.3 0c0-1.3-.6-2-1.4-2s-1.4.7-1.4 2 .6 2 1.4 2 1.4-.7 1.4-2zM208.8 243.8c0 .9-.7 1.4-1.8 1.4s-1.9-.5-1.9-1.3a1.2 1.2 0 011-1.2 1 1 0 01-.8-1c0-.8.7-1.3 1.7-1.3s1.6.5 1.6 1.3a1 1 0 01-.7 1 1.2 1.2 0 01.9 1.2zm-.5 0c0-.5-.5-.9-1.3-.9s-1.4.4-1.4 1 .5 1 1.4 1 1.3-.5 1.3-1zm-1.3-1.3c.7 0 1.2-.3 1.2-.8s-.5-.9-1.2-.9-1.2.3-1.2.9.4.8 1.2.8zM211.2 239.5h.4l-2.2 6.3h-.4zM215 244.7v.5h-3.3v-.4l2-1.9c.5-.5.6-.8.6-1.2 0-.5-.4-.9-1-.9a1.6 1.6 0 00-1.4.6l-.3-.3a2.1 2.1 0 011.6-.7c1 0 1.6.5 1.6 1.3a2 2 0 01-.8 1.5l-1.6 1.5zM218.8 243.8c0 .8-.6 1.4-1.7 1.4a2.5 2.5 0 01-1.7-.6l.2-.4a2 2 0 001.5.6c.8 0 1.2-.4 1.2-1s-.4-1-1.6-1h-1l.2-2.4h2.6v.4h-2.1l-.2 1.5h.6c1.4 0 2 .6 2 1.5zM202.9 237.4v.3h-2v-3h2v.3H201v1h1.5v.3h-1.5v1zM205.4 237.7l-1-1.3-1 1.3h-.3l1.2-1.5-1-1.5h.3l.9 1.2.9-1.2h.3l-1 1.4 1.1 1.6zM208.6 235.7c0 .7-.5 1-1.2 1h-.8v1h-.3v-3h1c.8 0 1.3.4 1.3 1zm-.4 0c0-.4-.3-.7-.9-.7h-.7v1.5h.7c.6 0 1-.3 1-.8zM210.4 234.7h1.2a1.5 1.5 0 110 3h-1.2zm1.1 2.7a1.2 1.2 0 100-2.4h-.8v2.4zM215.4 236.3v1.4h-.3v-.4a.8.8 0 01-.7.4c-.5 0-.8-.3-.8-.7s.2-.6.8-.6h.7v-.1a.5.5 0 00-.6-.6 1.1 1.1 0 00-.7.3l-.2-.3a1.4 1.4 0 011-.3.8.8 0 01.8.9zm-.3.7v-.4h-.7c-.4 0-.5.2-.5.4s.2.4.5.4a.7.7 0 00.7-.4zM217.4 237.5a.7.7 0 01-.5.2.6.6 0 01-.6-.7v-1.3h-.4v-.3h.4v-.4h.3v.5h.7v.2h-.7v1.3a.3.3 0 00.4.4.5.5 0 00.3-.1zM219.8 236.7H218a.8.8 0 00.9.7.9.9 0 00.6-.3l.2.2a1.1 1.1 0 01-.8.4 1 1 0 01-1.2-1.1 1 1 0 011-1.2 1 1 0 011.1 1.2zm-1.9-.3h1.6a.8.8 0 00-1.5 0zM256.5 240.4v4.8h-.4v-4.3h-1.2v-.5zM260.9 244.7v.5h-3.3v-.4l2-1.9c.5-.5.6-.8.6-1.2 0-.5-.4-.9-1-.9a1.6 1.6 0 00-1.4.6l-.3-.3a2.1 2.1 0 011.6-.7c1 0 1.6.5 1.6 1.3a2 2 0 01-.8 1.5l-1.6 1.5zM264.6 243.8c0 .8-.5 1.4-1.7 1.4a2.5 2.5 0 01-1.7-.6l.3-.4a2 2 0 001.4.6c.8 0 1.2-.4 1.2-1s-.4-1-1.2-1h-.4v-.3l1.3-1.6h-2.4v-.5h3v.4l-1.3 1.7c1 0 1.5.6 1.5 1.3zM255.1 236.2a1.5 1.5 0 011.5-1.5 1.4 1.4 0 011.1.4l-.2.2a1.2 1.2 0 00-.9-.3 1.2 1.2 0 100 2.4 1.1 1.1 0 001-.3l.1.2a1.4 1.4 0 01-1 .4 1.5 1.5 0 01-1.6-1.5zM262.4 234.7l-1 3h-.3l-1-2.5-.8 2.5h-.3l-1-3h.3l.9 2.6.9-2.6h.2l.9 2.6.9-2.6zM230.3 270.6h-2.6l-.6 1.2h-.5l2.1-4.7h.5l2.2 4.7h-.5zm-.2-.4l-1.1-2.6-1.1 2.6zM231.7 270a1.8 1.8 0 011.8-1.7 1.5 1.5 0 011.4.7l-.3.2a1.2 1.2 0 00-1-.5 1.4 1.4 0 000 2.8 1.2 1.2 0 001-.6l.3.3a1.6 1.6 0 01-1.4.7 1.8 1.8 0 01-1.8-1.8zM237.8 271.6a1.1 1.1 0 01-.8.3 1 1 0 01-1-1v-2.2h-.6v-.4h.6v-.8h.5v.8h1v.4h-1v2.1a.6.6 0 00.6.7.8.8 0 00.5-.2zM238.5 267.2a.3.3 0 01.7 0 .3.3 0 01-.7 0zm.1 1h.5v3.7h-.5zM240 270a1.8 1.8 0 112 1.9 1.8 1.8 0 01-2-1.8zm3.2 0a1.3 1.3 0 10-1.3 1.5 1.3 1.3 0 001.3-1.4zM248 269.8v2h-.5v-2a1 1 0 00-1-1 1.2 1.2 0 00-1.3 1.2v1.9h-.5v-3.6h.5v.7a1.5 1.5 0 011.3-.7 1.4 1.4 0 011.5 1.5zM251.6 267.6v1.8h2.5v.4h-2.5v2h-.5v-4.7h3.3v.4zM255.1 267.2a.3.3 0 01.7 0 .3.3 0 01-.7 0zm.1 1h.5v3.7h-.5zM260.4 268.3v3.1a1.6 1.6 0 01-1.8 1.8 2.5 2.5 0 01-1.7-.5l.3-.4a2.1 2.1 0 001.4.5c.9 0 1.3-.5 1.3-1.3v-.5a1.6 1.6 0 01-1.4.7 1.7 1.7 0 110-3.5 1.6 1.6 0 011.4.8v-.7zm-.5 1.7a1.4 1.4 0 10-1.4 1.3 1.3 1.3 0 001.4-1.3zM264.9 268.3v3.6h-.5v-.7a1.4 1.4 0 01-1.2.7 1.4 1.4 0 01-1.5-1.5v-2.1h.4v2a1 1 0 001.1 1.1 1.2 1.2 0 001.2-1.3v-1.8zM268 268.3v.4h-.1a1.2 1.2 0 00-1.2 1.4v1.8h-.5v-3.6h.5v.7a1.4 1.4 0 011.3-.7zM272 270.2h-3a1.3 1.3 0 001.4 1.3 1.4 1.4 0 001-.5l.4.3a1.9 1.9 0 01-3.3-1.2 1.7 1.7 0 011.8-1.8 1.7 1.7 0 011.7 1.8v.1zm-3-.3h2.5a1.3 1.3 0 00-2.5 0zM232.4 290.8v2.1h-1.8v-2a8.8 8.8 0 01-4.6-1.5l1-2.3a7.5 7.5 0 003.6 1.4v-3.1c-2.1-.5-4.4-1.2-4.4-3.9 0-2 1.4-3.6 4.4-4v-2h1.8v2a8.4 8.4 0 013.8 1.1l-1 2.3a7.7 7.7 0 00-2.8-1v3.1c2 .5 4.3 1.2 4.3 3.8 0 2-1.3 3.7-4.3 4zm-1.8-8.2V280c-1 .2-1.4.8-1.4 1.4s.6 1 1.4 1.2zm3.2 4.5c0-.7-.6-1-1.4-1.3v2.6c1-.2 1.4-.7 1.4-1.3zM247.7 288.2v2.5H238v-2l5-4.7c1.2-1.1 1.4-1.8 1.4-2.4 0-1-.8-1.6-2.1-1.6a3.2 3.2 0 00-2.7 1.3l-2.2-1.4a6 6 0 015.2-2.4c2.9 0 4.8 1.4 4.8 3.8 0 1.3-.4 2.4-2.2 4.1l-3 2.8zM249 284.2c0-4.3 2.3-6.7 5.5-6.7s5.6 2.4 5.6 6.7-2.4 6.7-5.6 6.7-5.6-2.4-5.6-6.7zm8 0c0-3-1-4.2-2.5-4.2s-2.5 1.2-2.5 4.2 1 4.2 2.5 4.2 2.5-1.3 2.5-4.2zM261.5 284.2c0-4.3 2.4-6.7 5.6-6.7s5.6 2.4 5.6 6.7-2.4 6.7-5.6 6.7-5.6-2.4-5.6-6.7zm8.1 0c0-3-1-4.2-2.5-4.2s-2.5 1.2-2.5 4.2 1 4.2 2.5 4.2 2.5-1.3 2.5-4.2zM270.1 323.8h-41.4a9.7 9.7 0 01-9.7-9.7 9.7 9.7 0 019.7-9.7h41.5a9.7 9.7 0 019.6 9.7 9.7 9.7 0 01-9.7 9.7z" fill="#263238"/><path d="M236.1 313c0 1.2-.9 2-2.3 2h-1.6v1.7h-.5v-5.6h2c1.5 0 2.4.7 2.4 1.9zm-.6 0c0-1-.6-1.4-1.7-1.4h-1.6v2.8h1.6c1.1 0 1.7-.5 1.7-1.4zM240.5 314.1v2.7h-.6v-.7a1.6 1.6 0 01-1.4.7c-1 0-1.6-.5-1.6-1.2s.4-1.2 1.6-1.2h1.4v-.3c0-.7-.4-1.1-1.2-1.1a2.2 2.2 0 00-1.4.5l-.3-.4a2.7 2.7 0 011.8-.6 1.5 1.5 0 011.7 1.6zm-.6 1.4v-.7h-1.3c-.9 0-1.1.3-1.1.8s.4.8 1 .8a1.4 1.4 0 001.4-.9zM245.6 312.5l-2.2 4.8c-.3.8-.8 1.1-1.4 1.1a1.5 1.5 0 01-1-.4l.3-.4a1 1 0 00.7.3c.4 0 .7-.2 1-.7l.1-.4-1.9-4.3h.6l1.6 3.6 1.6-3.6zM250.5 316.8v1h-.4v-1a3 3 0 01-2-.7l.3-.5a2.7 2.7 0 001.7.7v-2.1c-1-.2-1.8-.5-1.8-1.6 0-.8.5-1.5 1.8-1.6v-.9h.4v.9a3.1 3.1 0 011.6.5l-.2.5a3.1 3.1 0 00-1.4-.5v2.2c.9.2 1.9.5 1.9 1.5 0 .9-.6 1.6-2 1.6zm-.4-3.2v-2c-.9 0-1.3.5-1.3 1s.6.8 1.3 1zm1.7 1.7c0-.6-.6-.9-1.3-1v2c.9 0 1.3-.5 1.3-1zM257 316.3v.5h-4v-.4l2.4-2.4c.7-.6.8-1 .8-1.4 0-.6-.5-1-1.3-1a2 2 0 00-1.6.6l-.4-.4a2.6 2.6 0 012-.8c1.1 0 1.9.6 1.9 1.6a2.3 2.3 0 01-1 1.8l-2 1.9zM257.8 314c0-1.9 1-3 2.2-3s2.3 1.1 2.3 3-1 2.8-2.3 2.8-2.2-1-2.2-2.9zm4 0c0-1.6-.8-2.4-1.8-2.4s-1.7.8-1.7 2.3.7 2.4 1.7 2.4 1.7-.8 1.7-2.4zM263.1 314c0-1.9 1-3 2.3-3s2.3 1.1 2.3 3-1 2.8-2.3 2.8-2.3-1-2.3-2.9zm4 0c0-1.6-.6-2.4-1.6-2.4s-1.7.8-1.7 2.3.7 2.4 1.7 2.4 1.6-.8 1.6-2.4zM186.7 293.2c1.5 23-9.2 48.8-9.2 48.8l-57.7-16.3-10-2.8c10-14 14.7-41.3 12.1-63.4l-.4-4.7c-1-18.3 6.6-23.6 13-31.7 7-8.8 22.6-41.8 22.6-49.6s19.5-26.9 15.2-48.6c0 0 5.9-3.7 11.8-.7 2.7 1.4 5.4 4.1 7.6 9.2 5 11.9-2 45.5-8.2 53.7l-11.7 48.5s4 6.8 7.9 19.2a164.9 164.9 0 017 38.4z" fill="#fff"/><path d="M121.5 254.8c3.3 8.9 6.7 15 6.4 27.5s-7 31.8-5 41.9a8.8 8.8 0 00-3 1.5l-10.1-2.8c10-14 14.7-41.3 12.1-63.4a61 61 0 01-.4-4.8zM183.6 187.1l-11.8 48.5s4 6.8 7.9 19.2c-8-12.8-14.7-16.6-14.7-16.6 5.3-6.3 9.3-52.6 9.3-52.6s16.6-19.5 15-39.8a65 65 0 00-5.2-21.6c2.7 1.4 5.4 4.1 7.6 9.2 5 11.9-2 45.5-8.1 53.7z" fill="#92a6e3" opacity=".4"/><path d="M109.8 322.9c10-14 14.7-41.3 12.1-63.4s5.7-27.7 12.6-36.4 22.6-41.8 22.6-49.6 19.5-26.9 15.2-48.6c0 0 12.4-7.7 19.4 8.5 5 11.9-2 45.5-8.2 53.7l-11.7 48.5s12.5 21.6 14.9 57.6c1.5 23-9.2 48.8-9.2 48.8M148.3 360.4s13.1 8 20.8 20.9M185.2 375.7s-11.3 1.6-21.5-10.6c-6.6-7.9-26.5-11.4-31-31.9" fill="none" stroke="#263238" stroke-linecap="round" stroke-linejoin="round"/></g><g><path d="M349.6 436.3c-29-13.9-11.4-25-51.3-42.2s-40.2-31.9-35.4-65.6 1-69.7 12.6-72.8-9-49.6 4.4-66.1l66.5 129.2z" fill-opacity=".7" opacity=".2"/><path d="M457.4 435l-3.8-12c-1.3-5-2.4-9-5-13.7l-1.3-2.4c-2.7-4.8-6.4-11.4-8.6-19.6-1.4-5.4 0-18.9 1.4-32 1-9.3 2-18.2 1.6-23.2v-1.8c-.7-13.1-2.1-40.4-5-48-2.9-7.3-5.5-8.4-10.4-10.3l-1.6-.7c-1.8-.7-4.9-2.3-8.5-4.2-8-4.1-18-9.3-23.1-10a45.4 45.4 0 00-14.3.7c-6.3-4.8-17-11-20.1-11.1-2.6-.2-8.3 1.5-11 2.3l-1.4.5a41.2 41.2 0 00-5.5-3.6l-.3-.2a32.6 32.6 0 00-11.8-1.4l-1.9.1-13.2-20.5c-5-7.8-20-39.7-20.2-40a.3.3 0 00-.2-.2.5.5 0 00-.2 0c-1.1-.3-9.8-2.6-13.3 5.9-3.8 9.1 1.6 29.3 7 36.6 2.5 3.5 9.5 17.9 16.6 32.7-1.9 1.7-16.4 15.2-23.5 17.7-5.8 2-4.4 31.7-3.3 55.5.4 8.8.7 16.4.6 21-.2 8.7 15.8 20.9 31.3 32.6 14 10.6 28.6 21.6 30.3 29.5.4 2.3 1.8 4.1 3.4 6.2 2.6 3.4 6 7.4 7.5 15 .5 2.2 4.1 5.2 7 10h105l-4.2-11.5zM311.9 276.7c5 10.7 8.2 17 9 17.7s.7 4.1.7 7.4a59.4 59.4 0 00.3 8.6c-1.3 1.1-9.1 8.2-10.7 14l-6.6-7.8-1.7-24.6c1-1 7.8-8.3 9-15.3z" fill="#fff"/><path d="M427.3 345.3c2.5 23 2.5 35.6 5.3 42.2 4.7 11.3 11.5 13.6 11.5 13.6a69.5 69.5 0 01-5.4-13.7c-1.4-5.5 0-19 1.4-32 1-9.4 1.9-18.3 1.6-23.3v-1.8c-.7-13.1-2.1-40.4-5-48-2.9-7.3-5.6-8.3-10.4-10.3l-1.6-.6-8.5-4.3c-8-4.1-18-9.3-23.1-10a45 45 0 00-14.3.7c-6.3-4.8-17-11-20.1-11.1a57 57 0 00-12.4 2.8c12 9.8 29.3 22 29.3 22 13.6 2.7 11.9 8.6 17.4 12 5 3 9.8-5.8 14-6.6 5.5-1 11.8 4.8 11.5 11.9-.8 19.4 6.7 36.7 8.8 56.5zM358.2 273.9s-10.8-9-16-12-6-13.4-2-15.9a1.1 1.1 0 01.6-.1l-.4-.2a32.4 32.4 0 00-11.7-1.4c6 11.2 10.7 19.7 12 21.6 4.4 6.3 17.5 8 17.5 8zM341.8 413.8c.4-2.4-3.5-9.4-5.2-12.2-4-6.5-49.6-46.8-43-57.6s12.7-2.8 16.8-2c3 .4 11.3-4.5 11.3-4.9-1-8.3 6.7-13.7 6.7-13.7s-.7-33-2.5-32.4-22.8-49.5-22.8-49.5-22.3-29.6-21-43.5 10.9-14 10.9-14v-.4c-1.2-.3-9.9-2.5-13.4 5.9-3.8 9.2 1.7 29.3 7 36.6 2.5 3.5 9.5 17.9 16.6 32.8-1.8 1.6-16.4 15-23.4 17.6-5.8 2-4.5 31.7-3.4 55.6.5 8.8.8 16.3.7 20.9-.2 8.8 15.8 20.9 31.3 32.6 14 10.6 28.5 21.6 30.2 29.6.5 2.2 1.8 4 3.4 6a40.5 40.5 0 01-.2-7.4zm-30-137c5 10.7 8.2 17 9 17.7s.7 4.1.7 7.4a59.4 59.4 0 00.3 8.7c-1.3 1-9.1 8.2-10.7 14l-6.6-7.9-1.7-24.5c1-1.1 7.8-8.4 9-15.4z" fill="#92a6e3" opacity=".4"/><path d="M352 273.8a22.7 22.7 0 01-11.2-8c-4.6-6-22.6-34-27.5-41.8S293 184 293 184s-9.4-3.1-13 5.6 1.3 28.7 6.9 36.3 32 66.5 34.1 68.4-1 17.6 3.2 21.4" fill="none" stroke="#263238" stroke-linecap="round" stroke-linejoin="round"/><path d="M322.1 310.7s-9.7 8.4-10.8 14.6l-7.2-8.5-1.7-24.8s8.7-8.7 9.2-16.4" fill="none" stroke="#263238" stroke-linecap="round" stroke-linejoin="round"/><path d="M303.6 258.9s-16 15.2-23.7 17.9-2.1 59.7-2.5 76.1 58 45.3 61.5 62.1c1.5 6.8 7.3 8.1 11 21M326.6 244.7s8.7-.8 13.7 1.3 25 19.3 29.8 22.6 12.1 4.5 13.5 8" fill="none" stroke="#263238" stroke-linecap="round" stroke-linejoin="round"/><path d="M346.2 249.8s9-3 12.4-2.8 16.4 7.8 22.2 12.9a49.4 49.4 0 0015.1 9.2" fill="none" stroke="#263238" stroke-linecap="round" stroke-linejoin="round"/><path d="M378.7 258.1a43.9 43.9 0 0114.3-.6c7.3 1 25.7 11.8 31.5 14.2s8.7 2.9 11.8 10.8 4.5 37.8 5 49.6-5.5 45.8-3 55.3 7.2 17 10 22M302.4 292s-1.4-5.9-3.4-6.6M304.1 316.8a74.5 74.5 0 002.7 10c1.5 3.6-.8 8.8-.8 8.8M311.3 325.3c-.2 5.7 5.4 12.3 6.8 11.4" fill="none" stroke="#263238" stroke-linecap="round" stroke-linejoin="round"/><path d="M340 292s6.1-9.8 12-10.3 12.5 7.8 16 7 8.2-6 14.2-7 9 2 13.7 2.2 5.3-6.2 11-7 7.7 2 11.5 2.7 4.8-2.3 8-4" fill="none" stroke="#263238" stroke-linecap="round" stroke-linejoin="round"/></g></svg>